<svg width="280.094" height="277.094" xmlns="http://www.w3.org/2000/svg">

 <g>
  <title>background</title>
  <rect fill="none" id="canvas_background" height="279.094" width="282.094" y="-1" x="-1"/>
 </g>
 <g>
  <title>Layer 1</title>
  <g stroke="null" id="svg_1" fill-rule="evenodd" fill="none">
   <path stroke="null" id="svg_2" fill="#f00" d="m280.514,138.811c0,38.259 -13.73,70.914 -41.188,97.967c-27.459,27.053 -60.604,40.58 -99.437,40.58c-38.832,0 -71.978,-13.527 -99.437,-40.58c-27.458,-27.053 -41.188,-59.708 -41.188,-97.967s13.73,-70.914 41.188,-97.967c27.46,-27.054 60.605,-40.58 99.438,-40.58s71.978,13.527 99.437,40.58s41.188,59.708 41.188,97.967l-0.001,0z"/>
   <path stroke="null" id="svg_3" fill="#f00" d="m224.264,138.811c0,22.955 -8.238,42.549 -24.713,58.78c-16.475,16.232 -36.362,24.348 -59.662,24.348s-43.187,-8.116 -59.662,-24.348c-16.475,-16.231 -24.713,-35.825 -24.713,-58.78s8.238,-42.549 24.713,-58.78c16.475,-16.232 36.363,-24.348 59.662,-24.348c23.3,0 43.187,8.116 59.662,24.348c16.475,16.231 24.713,35.825 24.713,58.78z"/>
   <path stroke="#fff" id="svg_4" stroke-width="18.42" d="m224.264,138.811c0,22.955 -8.238,42.549 -24.713,58.78c-16.475,16.232 -36.362,24.348 -59.662,24.348s-43.187,-8.116 -59.662,-24.348c-16.475,-16.231 -24.713,-35.825 -24.713,-58.78s8.238,-42.549 24.713,-58.78c16.475,-16.232 36.363,-24.348 59.662,-24.348c23.3,0 43.187,8.116 59.662,24.348c16.475,16.231 24.713,35.825 24.713,58.78z"/>
   <path stroke="null" id="svg_5" fill="#fff" d="m111.764,179.74l73.049,-40.917l-73.049,-40.941l0,81.858zm319.685,-68.153c-6.685,32.939 -11.765,73.152 -14.432,89.755l-1.882,0c-2.159,-17.11 -7.239,-57.058 -14.166,-89.478l-17.122,-80.692l-52.187,0l0,217.633l32.362,0l0,-179.417l3.198,16.752l32.905,162.63l32.375,0l32.362,-162.63l3.463,-16.845l0,179.499l32.375,0l0,-217.634l-52.682,0l-16.568,80.427l-0.001,0zm156.754,104.533c-2.956,5.969 -9.352,10.114 -15.794,10.114c-7.482,0 -10.438,-5.704 -10.438,-19.697l0,-116.747l-36.921,0l0,118.803c0,29.326 9.883,42.788 31.842,42.788c14.963,0 26.994,-6.489 35.307,-22.04l0.808,0l3.198,19.442l28.887,0l0,-158.983l-36.923,0l0,126.308l0.035,0l-0.001,0.012zm108.32,-63.57c-12.042,-8.567 -19.523,-14.27 -19.523,-26.716c0,-8.81 4.272,-13.74 14.432,-13.74c10.448,0 13.924,6.986 14.166,30.873l31.046,-1.281c2.401,-38.632 -10.714,-54.726 -44.681,-54.726c-31.554,0 -47.083,13.74 -47.083,42.003c0,25.677 12.85,37.35 33.713,52.67c17.93,13.497 28.367,21.013 28.367,31.912c0,8.313 -5.357,14.005 -14.72,14.005c-10.968,0 -17.4,-10.125 -15.76,-27.767l-31.288,0.508c-4.838,32.928 8.844,52.128 45.2,52.128c31.843,0 48.434,-14.27 48.434,-42.788c-0.034,-25.942 -13.393,-36.333 -42.303,-57.08l0,-0.001zm97.907,-62.76l-35.318,0l0,158.98l35.33,0l0,-158.97l-0.012,-0.01zm-17.4,-62.785c-13.623,0 -20.066,4.93 -20.066,22.063c0,17.642 6.396,22.04 20.078,22.04c13.912,0 20.066,-4.421 20.066,-22.04c0,-16.325 -6.154,-22.063 -20.078,-22.063zm136.157,164.455l-32.362,-1.559c0,28.01 -3.198,37.084 -14.155,37.084c-10.968,0 -12.85,-10.125 -12.85,-43.065l0,-30.826c0,-31.924 2.159,-42.014 13.127,-42.014c10.16,0 12.839,9.582 12.839,39.174l32.073,-2.056c2.16,-24.638 -1.073,-41.506 -10.956,-51.089c-7.24,-7.02 -18.196,-10.356 -33.436,-10.356c-35.838,0 -50.558,18.68 -50.558,71.051l0,22.306c0,53.953 12.561,71.329 49.23,71.329c15.517,0 26.208,-3.117 33.436,-9.86c10.414,-9.398 14.42,-25.458 13.624,-50.12l-0.012,0.001z"/>
  </g>
 </g>
</svg>